# xmcd
#
# Track frame offsets:
#	150
#	19129
#	37211
#	54000
#	75258
#	89130
#	96368
#	110202
#	130825
#	145510
#	157849
#	173676
#	190494
#	206711
#	221911
#	235030
#	256155
#	277082
#	294617
#	304455
#	325064
#	341604
#
# Disc length: 4743 seconds
#
# Revision: 0
# Processed by: cddbd v1.5.2PL0 Copyright (c) Steve Scherf et al.
# Submitted via: SynApp - FreeCDDB Version: 2.3
#
DISCID=48128516
DTITLE=Procol Harum - The Best Of
DYEAR=1970
DGENRE=Rock
TTITLE0=A Whiter Shade Of Pale
TTITLE1=Homburg
TTITLE2=Quite Righly So
TTITLE3=A Salty Dog
TTITLE4=Lime Street Blues
TTITLE5=Good Captain Clack
TTITLE6=In The Wee Small Hours Of Sixp
TTITLE7=Rambling On
TTITLE8=Long Gone Geek
TTITLE9=Conquistador
TTITLE10=She Wandered Through The Garde
TTITLE11=Salad Days
TTITLE12=Shine On Brightly
TTITLE13=Wish Me Well
TTITLE14=Magdalene
TTITLE15=The Devil Came From Kansas
TTITLE16=Boredom
TTITLE17=Wreck Of The Hesperus
TTITLE18=Juicy John Pink
TTITLE19=Whiskey Train
TTITLE20=About To Die
TTITLE21=Your Own Choice
EXTD=
EXTT0=
EXTT1=
EXTT2=
EXTT3=
EXTT4=
EXTT5=
EXTT6=
EXTT7=
EXTT8=
EXTT9=
EXTT10=
EXTT11=
EXTT12=
EXTT13=
EXTT14=
EXTT15=
EXTT16=
EXTT17=
EXTT18=
EXTT19=
EXTT20=
EXTT21=
PLAYORDER=
